<?xml version="1.0" standalone="no"?>
<!DOCTYPE svg PUBLIC "-//W3C//DTD SVG 20010904//EN"
 "http://www.w3.org/TR/2001/REC-SVG-20010904/DTD/svg10.dtd">
<svg version="1.0" xmlns="http://www.w3.org/2000/svg"
 width="1000.000000pt" height="1000.000000pt" viewBox="0 0 1000.000000 1000.000000"
 preserveAspectRatio="xMidYMid meet">
<metadata>
Created by potrace 1.16, written by Peter Selinger 2001-2019
</metadata>
<g transform="translate(0.000000,1000.000000) scale(0.100000,-0.100000)"
fill="#000000" stroke="none">
<path d="M0 5000 l0 -5000 5000 0 5000 0 0 5000 0 5000 -5000 0 -5000 0 0
-5000z m5022 3475 c34 -41 42 -45 81 -45 31 0 45 -5 55 -20 15 -25 42 -25 90
-1 25 13 60 19 110 20 68 1 72 0 72 -22 -1 -71 -34 -87 -89 -41 -39 32 -67 29
-63 -9 3 -30 -12 -35 -42 -12 -11 8 -32 15 -46 15 -14 0 -35 7 -46 15 -25 19
-60 19 -68 0 -3 -8 -10 -15 -17 -15 -6 0 -9 7 -5 15 3 10 -6 20 -27 31 -18 9
-36 23 -40 31 -5 8 -20 18 -33 23 -13 5 -24 14 -24 20 0 16 78 12 92 -5z
m-182 -62 c0 -32 -31 -53 -77 -53 -23 0 -43 -4 -43 -10 0 -5 7 -10 15 -10 17
0 85 -64 85 -80 0 -19 -36 -10 -60 15 -13 14 -30 25 -37 25 -8 0 -16 7 -20 16
-3 9 -15 14 -32 12 -20 -2 -26 1 -26 16 0 13 15 24 49 38 27 10 58 25 70 33
29 21 76 20 76 -2z m-259 -23 c12 -51 22 -70 35 -70 20 0 28 -21 13 -31 -21
-13 -137 -11 -162 3 -12 6 -44 12 -72 12 -38 1 -50 5 -50 16 0 12 18 16 93 18
l93 3 -6 29 c-8 37 1 52 28 48 14 -2 24 -13 28 -28z m1512 -76 c86 -27 105
-41 67 -51 -50 -13 3 -48 59 -38 29 5 43 1 64 -15 19 -15 43 -21 89 -23 82 -4
108 -18 53 -30 -69 -16 -122 -13 -144 7 -16 15 -29 17 -68 11 -54 -7 -72 4
-92 58 -11 29 -29 35 -49 15 -21 -21 -13 -48 18 -66 17 -10 32 -28 36 -45 l6
-28 73 7 c44 4 85 2 103 -4 24 -8 33 -7 43 4 17 21 49 18 49 -5 0 -11 -4 -23
-10 -26 -5 -3 -10 -15 -10 -26 0 -24 -11 -24 -59 1 -33 16 -51 18 -126 13 -80
-6 -88 -8 -108 -35 -24 -32 -48 -36 -73 -11 -16 16 -15 18 5 31 11 8 21 20 21
28 0 7 9 16 20 19 11 3 20 15 20 25 0 20 -44 60 -66 60 -7 0 -18 9 -24 20 -6
11 -20 20 -30 20 -15 0 -20 7 -20 25 0 31 15 32 31 4 9 -18 13 -19 25 -8 9 10
11 24 5 52 -5 20 -6 37 -2 37 3 0 45 -12 94 -26z m-2289 -136 c-1 -18 -3 -36
-3 -40 -1 -5 -21 -8 -45 -8 -35 0 -53 -7 -92 -38 -27 -21 -64 -44 -82 -52 -23
-9 -38 -24 -48 -50 -15 -37 -33 -51 -88 -67 -18 -6 -33 -19 -40 -38 -13 -36
-146 -165 -169 -165 -9 0 -17 5 -17 11 0 12 8 22 90 106 67 68 66 83 -4 80
-30 -1 -58 -6 -62 -10 -9 -9 -44 -9 -44 0 0 4 10 17 22 30 l22 24 -22 6 c-12
3 -22 9 -22 13 0 16 75 54 101 52 32 -4 95 32 102 58 3 13 17 22 36 26 17 4
36 13 42 21 14 16 74 43 95 43 8 0 14 -6 14 -13 0 -13 -24 -30 -83 -59 -21
-11 -47 -34 -58 -53 -23 -38 -45 -49 -83 -39 -16 4 -32 1 -41 -6 -14 -11 -12
-15 15 -31 16 -10 30 -26 30 -34 0 -28 43 -16 79 24 20 21 46 44 59 50 13 7
27 23 32 37 5 13 21 29 34 35 16 8 26 23 31 46 6 34 8 35 43 31 26 -3 50 2 81
19 63 33 79 31 75 -9z m3270 -495 c0 -13 7 -25 16 -28 8 -3 21 -19 27 -36 14
-35 35 -34 43 2 4 16 14 25 30 27 14 2 29 8 34 13 13 11 46 -19 46 -41 0 -13
-11 -19 -40 -24 -31 -5 -41 -11 -46 -31 -8 -32 22 -83 39 -66 15 15 42 14 57
-3 6 -8 34 -22 61 -31 57 -19 69 -33 45 -51 -20 -14 -41 -9 -71 16 -38 32 -87
51 -101 39 -21 -17 -42 -4 -58 36 -9 20 -26 39 -40 45 -29 11 -46 38 -46 74 0
18 -9 30 -30 41 -42 22 -40 47 3 43 26 -2 32 -7 31 -25z m766 -693 c7 -17 10
-43 7 -59 -5 -21 0 -37 16 -57 13 -18 22 -44 23 -72 2 -55 23 -81 47 -58 22
23 60 20 85 -6 20 -22 42 -68 42 -89 0 -17 -29 -9 -35 10 -7 23 -50 35 -98 26
-30 -6 -37 -3 -56 21 -13 16 -20 36 -17 48 3 10 -4 36 -15 57 -10 21 -19 46
-19 55 0 9 -11 29 -25 46 -19 22 -23 36 -19 56 14 58 45 69 64 22z m-2528 -20
c465 -98 848 -393 1058 -815 66 -133 100 -229 132 -379 32 -145 32 -455 0
-599 -68 -309 -203 -557 -422 -777 -207 -209 -465 -348 -770 -415 -118 -26
-400 -31 -533 -11 -665 105 -1174 620 -1273 1288 -21 144 -14 390 14 523 135
630 646 1110 1278 1200 137 20 387 13 516 -15z m2786 -453 c2 -11 -5 -25 -18
-34 -20 -14 -21 -21 -15 -89 7 -66 5 -74 -11 -81 -20 -7 -70 -57 -77 -77 -6
-15 -35 3 -61 37 -24 32 -15 44 19 29 23 -11 27 -9 35 13 6 15 17 25 30 25 29
0 36 26 16 66 -22 48 -20 67 12 103 30 35 64 38 70 8z m205 -473 c24 -49 21
-61 -13 -67 -35 -7 -38 -26 -10 -52 11 -10 20 -29 20 -43 0 -29 39 -102 55
-102 7 0 18 12 25 28 l13 27 15 -44 c11 -33 12 -49 4 -62 -9 -13 -8 -19 3 -23
23 -8 18 -57 -8 -85 -22 -24 -23 -32 -17 -106 6 -77 -3 -125 -22 -125 -5 0
-17 19 -28 42 -18 40 -17 68 1 68 5 0 8 38 6 84 -2 70 1 87 17 105 17 19 17
21 2 21 -9 0 -31 20 -48 45 -17 25 -39 47 -48 50 -15 5 -46 78 -42 96 5 23 4
80 -3 111 -6 29 -3 40 14 57 26 26 43 19 64 -25z m-6365 -2 c2 -13 -5 -26 -21
-37 -14 -9 -27 -29 -31 -45 -6 -35 -21 -39 -36 -10 -14 26 -37 15 -55 -26 -7
-18 -27 -40 -43 -48 -38 -20 -45 -39 -32 -88 8 -29 8 -43 -1 -54 -24 -29 -37
-15 -41 49 -4 48 -1 68 12 87 10 14 20 42 24 62 6 32 13 40 53 58 31 14 57 18
79 14 28 -5 33 -3 39 18 16 50 47 62 53 20z m6282 -227 c0 -8 14 -30 30 -48
21 -24 30 -45 30 -68 0 -19 11 -68 24 -109 13 -41 22 -78 19 -82 -2 -5 -22
-11 -45 -14 -28 -5 -42 -13 -45 -25 -7 -27 -32 -23 -39 5 -7 29 1 46 22 46 8
0 14 4 14 10 0 5 13 7 30 4 36 -8 36 -6 9 40 -12 21 -22 57 -24 90 -2 45 -9
62 -36 94 -29 34 -35 38 -45 24 -15 -21 -44 -8 -44 19 0 17 5 20 25 17 14 -3
28 -1 31 3 9 15 44 10 44 -6z m136 -512 c17 -55 39 -93 56 -99 11 -3 17 -8 14
-11 -14 -14 17 -43 44 -43 33 0 38 -11 15 -30 -8 -7 -15 -23 -15 -35 0 -30
-10 -55 -21 -55 -5 0 -9 6 -9 14 0 24 -20 29 -34 10 -13 -17 -14 -16 -25 5
-12 21 -13 21 -25 5 -21 -28 -46 -11 -46 31 0 40 21 55 46 34 13 -10 17 -10
25 2 12 20 11 27 -5 36 -16 9 -56 104 -56 133 0 25 29 26 36 3z m115 -322 c16
-16 29 -32 29 -35 0 -3 -20 -15 -44 -27 -36 -16 -45 -26 -49 -52 -9 -56 37
-99 71 -65 9 9 12 4 12 -24 0 -27 -5 -38 -19 -43 -12 -3 -21 -18 -24 -41 -4
-20 -22 -53 -45 -79 -22 -25 -42 -58 -45 -74 -6 -30 -61 -100 -70 -91 -3 3 -8
17 -12 32 -6 22 0 34 34 71 23 24 41 52 41 62 0 9 9 28 20 42 11 14 20 40 20
58 0 28 -4 33 -29 38 -38 8 -47 34 -21 69 11 15 20 36 20 47 0 11 7 26 15 35
8 8 15 26 15 41 0 35 17 65 36 65 9 0 29 -13 45 -29z m-6891 -150 c5 -11 10
-33 10 -50 0 -20 7 -34 20 -41 15 -8 20 -21 20 -53 0 -24 8 -56 20 -75 11 -18
20 -39 20 -47 0 -23 -20 -28 -35 -9 -17 24 -26 14 -34 -33 -4 -26 -12 -39 -25
-41 -25 -5 -33 6 -41 56 -6 40 -6 42 19 42 40 0 53 38 35 98 -13 40 -19 47
-41 47 -38 0 -43 10 -28 57 7 24 14 49 16 56 5 19 32 14 44 -7z m6703 -444
c28 -30 99 -43 117 -22 32 38 52 -1 31 -59 -8 -18 -15 -23 -31 -19 -33 9 -53
-15 -46 -57 3 -21 3 -40 0 -43 -13 -13 -34 7 -34 33 0 49 -20 88 -56 109 -19
12 -42 21 -50 21 -20 0 -29 27 -14 45 18 22 58 18 83 -8z m-6635 -157 c5 -34
20 -50 48 -50 19 0 26 -7 31 -30 3 -16 12 -30 19 -30 8 0 14 -4 14 -10 0 -5
12 -13 26 -16 29 -7 51 -51 34 -68 -7 -7 -21 -4 -46 7 -31 15 -41 16 -66 5
-29 -13 -30 -15 -25 -65 3 -29 2 -53 -2 -53 -4 0 -16 29 -28 65 -18 57 -20 69
-8 91 17 32 8 63 -20 74 -27 10 -43 73 -24 96 18 22 43 13 47 -16z m6520 -193
c4 -33 -13 -57 -39 -57 -25 0 -24 -15 2 -33 30 -21 24 -91 -8 -95 -14 -2 -23
-10 -23 -21 0 -10 -9 -26 -21 -37 -16 -14 -20 -27 -16 -51 10 -60 -35 -51 -49
10 -5 26 -2 34 18 51 14 12 31 31 37 43 6 13 17 22 24 20 7 -1 12 9 12 23 0
17 -7 26 -25 30 -34 8 -37 35 -6 63 14 14 26 31 26 40 0 22 29 49 49 45 9 -2
17 -15 19 -31z m152 -28 c0 -6 -9 -24 -20 -40 -16 -22 -19 -33 -10 -48 14 -28
13 -76 -5 -117 -17 -41 -35 -37 -35 9 0 18 -3 42 -6 54 -5 18 -10 20 -30 12
-31 -11 -44 13 -20 40 9 10 16 27 16 38 0 13 13 26 43 40 49 24 67 27 67 12z
m-6503 -67 c18 -24 33 -55 33 -69 0 -16 7 -27 20 -30 24 -6 37 -42 19 -53 -19
-12 -39 0 -39 24 0 11 -12 30 -27 40 -26 19 -26 19 -40 0 -11 -14 -13 -34 -8
-76 6 -59 -4 -79 -26 -51 -11 12 -13 45 -11 131 1 63 5 119 8 124 11 18 38 2
71 -40z m6368 -133 c-4 -11 -2 -19 5 -19 21 0 22 -30 1 -56 -12 -15 -21 -41
-21 -61 0 -37 -21 -53 -45 -33 -12 10 -15 7 -20 -13 -10 -39 -38 -58 -94 -62
-46 -4 -51 -3 -51 16 0 20 4 23 53 33 16 4 32 17 38 30 6 13 22 29 36 35 13 6
31 28 40 49 8 20 21 40 29 45 7 4 11 14 8 22 -8 20 3 48 16 40 6 -4 8 -15 5
-26z m-6285 -91 c38 -52 39 -73 5 -64 -36 9 -45 0 -36 -32 6 -19 4 -34 -5 -47
-8 -10 -14 -27 -14 -37 0 -10 -4 -18 -8 -18 -14 0 -32 49 -32 88 0 20 -4 52
-9 69 -8 26 -6 37 11 58 28 36 53 31 88 -17z m267 -134 c8 -21 -54 -84 -84
-84 -27 0 -33 -34 -8 -44 10 -3 15 -19 15 -45 0 -22 4 -51 10 -66 8 -21 7 -27
-7 -32 -31 -12 -53 32 -53 106 -1 42 -6 73 -15 85 -8 11 -15 28 -15 39 0 16 5
18 39 12 38 -6 71 10 71 36 0 15 40 10 47 -7z m1034 -126 l49 -41 0 -178 0
-177 -47 -41 -48 -41 -137 0 -138 0 0 107 c0 96 -2 109 -22 130 l-21 23 21 23
c20 21 22 34 22 130 l0 107 136 0 135 0 50 -42z m314 -58 c38 -56 72 -103 76
-106 5 -2 40 43 79 101 70 104 71 105 110 105 22 0 40 -2 40 -5 0 -3 -43 -69
-95 -148 l-95 -142 0 -112 0 -113 -35 0 -35 0 0 109 0 110 -100 150 -100 151
43 0 43 0 69 -100z m545 -104 l0 -205 29 -20 c22 -16 44 -21 88 -21 52 0 63 4
86 28 l27 28 0 197 0 197 35 0 35 0 0 -107 c0 -96 2 -109 22 -130 l21 -23 -21
-23 c-18 -19 -22 -35 -22 -90 0 -65 -1 -67 -42 -106 l-43 -40 -101 -1 -101 0
-47 41 c-46 41 -46 41 -46 107 0 54 -4 70 -22 89 l-22 23 22 16 c20 14 22 23
22 130 l0 114 40 0 40 0 0 -204z m720 18 l105 -186 3 186 2 186 40 0 40 0 0
-112 c0 -100 2 -114 21 -134 l21 -23 -21 -13 c-19 -12 -21 -22 -21 -125 l0
-113 -42 0 -43 1 -105 189 -105 188 -3 -189 -2 -189 -40 0 -40 0 0 107 c0 93
-3 109 -20 128 l-20 22 20 18 c18 16 20 31 20 132 l0 113 43 0 42 -1 105 -185z
m740 151 l0 -35 -120 0 -120 0 0 -80 0 -80 90 0 90 0 0 -35 0 -35 -90 0 -90 0
0 -75 0 -75 120 0 120 0 0 -35 0 -35 -160 0 -160 0 0 107 c0 93 -3 109 -20
128 l-20 22 20 18 c18 16 20 31 20 132 l0 113 160 0 160 0 0 -35z m510 0 l0
-35 -75 0 -75 0 0 -79 c0 -71 2 -82 22 -95 l22 -16 -22 -23 c-20 -21 -22 -34
-22 -130 l0 -107 -40 0 -40 0 0 115 c0 106 -2 115 -21 126 l-21 11 21 22 c18
19 21 35 21 99 l0 77 -75 0 -75 0 0 35 0 35 190 0 190 0 0 -35z m469 -7 c38
-41 41 -47 41 -105 0 -58 -3 -65 -40 -108 -22 -25 -40 -48 -40 -51 0 -2 23
-49 50 -104 28 -55 50 -102 50 -105 0 -3 -17 -5 -38 -5 l-38 0 -54 110 -54
110 -48 0 -48 0 0 -110 0 -110 -40 0 -40 0 0 113 c0 103 -2 113 -21 125 l-21
13 21 23 c19 20 21 34 21 134 l0 112 130 0 129 0 40 -42z m515 -70 c37 -99 42
-107 63 -102 26 7 31 -13 12 -45 -10 -14 -3 -40 34 -137 43 -115 44 -120 27
-138 -17 -18 -18 -18 -41 5 -13 13 -34 48 -45 79 l-22 55 -110 3 -110 3 -23
-66 c-23 -65 -23 -65 -62 -65 -44 0 -45 -9 8 130 32 84 33 85 14 106 -19 20
-19 20 13 36 23 11 37 27 47 54 8 22 27 74 43 117 l30 78 41 -3 42 -3 39 -107z
m1036 98 c0 -7 -9 -25 -20 -38 -23 -30 -17 -39 19 -32 42 9 56 -15 34 -60 -20
-42 -30 -45 -43 -11 -9 23 -13 24 -70 21 -59 -3 -60 -2 -60 24 0 37 44 78 69
63 15 -9 19 -6 28 18 11 29 43 41 43 15z m-239 -352 c-6 -22 -11 -55 -11 -75
0 -21 -8 -47 -19 -61 -11 -13 -21 -40 -23 -58 -3 -30 -10 -38 -53 -61 -48 -26
-50 -28 -47 -65 3 -31 -2 -44 -21 -63 -14 -12 -33 -21 -44 -19 -27 5 -29 52
-4 84 28 36 27 79 -4 109 -13 14 -29 25 -35 25 -19 0 -11 49 10 60 42 22 90
-13 90 -65 0 -38 22 -52 44 -29 29 29 58 107 52 143 -5 34 11 79 42 114 23 26
35 6 23 -39z m-5742 12 c12 -13 36 -26 53 -28 27 -4 29 -2 25 19 -9 46 13 33
54 -32 36 -57 43 -64 53 -49 17 23 56 10 56 -19 0 -12 9 -36 19 -54 11 -17 17
-40 14 -52 -4 -14 5 -32 26 -56 24 -28 30 -42 25 -61 -4 -17 -1 -31 12 -45 11
-12 19 -40 21 -77 l4 -57 -65 70 c-68 73 -93 125 -31 65 25 -24 35 -29 35 -18
0 30 -12 49 -42 64 -19 10 -31 25 -35 45 -5 25 -9 30 -27 24 -41 -12 -50 -10
-60 18 -7 20 -7 33 2 47 17 28 15 39 -15 82 -18 27 -29 36 -37 28 -16 -16 -34
-12 -63 18 -45 46 -76 92 -60 92 7 0 24 -11 36 -24z m4845 -742 c9 -3 16 -14
16 -24 0 -10 7 -20 15 -24 8 -3 15 -17 15 -31 0 -33 22 -41 73 -25 29 8 42 9
45 1 2 -6 15 -8 31 -5 18 4 32 0 41 -10 11 -14 9 -21 -15 -46 -22 -23 -32 -27
-42 -19 -7 6 -13 20 -13 30 0 23 -3 23 -55 4 -52 -18 -85 -19 -85 -1 0 18 -22
26 -49 19 -16 -4 -21 -1 -21 15 0 12 8 25 17 31 10 5 15 12 12 16 -9 9 -61 9
-91 1 -54 -16 -26 40 32 63 30 12 53 13 74 5z m-374 -214 c0 -6 15 -19 33 -30
25 -16 42 -19 75 -14 34 5 42 3 42 -9 0 -26 -30 -47 -67 -47 -28 0 -34 -3 -29
-16 3 -9 6 -21 6 -27 0 -7 10 -17 23 -22 30 -14 28 -29 -6 -33 -18 -2 -29 2
-33 12 -3 9 -13 16 -21 16 -12 0 -14 7 -9 30 4 22 2 30 -9 30 -9 0 -15 9 -15
22 0 12 -10 32 -21 45 -18 18 -20 25 -9 38 14 17 40 20 40 5z m-70 -150 c0
-11 -6 -23 -14 -26 -8 -3 -12 -13 -9 -23 4 -14 18 -20 65 -25 35 -3 68 -2 79
5 25 13 35 6 41 -26 4 -20 0 -29 -20 -39 -23 -12 -29 -11 -53 6 -21 16 -31 18
-47 9 -11 -6 -32 -11 -45 -11 -19 0 -30 -10 -46 -40 -12 -22 -21 -47 -21 -54
0 -20 -44 -33 -149 -45 -100 -11 -116 -8 -106 17 9 23 -13 31 -51 19 -31 -9
-37 -8 -64 19 -35 34 -37 50 -10 59 13 4 36 -2 63 -18 29 -17 51 -23 71 -20
18 4 31 1 37 -8 5 -9 28 -14 69 -14 61 -1 62 -1 101 46 42 50 48 69 23 69 -8
0 -21 -15 -29 -34 -17 -40 -43 -53 -63 -32 -13 13 -12 17 10 38 13 13 27 30
31 39 3 10 24 25 47 35 24 11 39 23 36 31 -6 15 20 43 40 43 8 0 14 -9 14 -20z
m-1817 -267 c24 -28 31 -71 16 -99 -16 -30 -2 -44 43 -44 27 0 36 -7 62 -44 9
-14 30 -20 84 -25 77 -7 89 1 53 33 -25 22 -16 46 16 46 19 0 28 -8 40 -40 13
-31 21 -40 40 -40 26 0 83 -29 83 -42 0 -15 -92 -8 -119 8 -25 15 -30 15 -59
0 -41 -21 -81 -20 -117 4 -16 11 -42 20 -56 20 -14 0 -34 9 -44 20 -10 11 -23
20 -30 20 -7 0 -20 9 -30 20 -27 30 -85 27 -116 -6 -31 -33 -54 -45 -73 -38
-21 8 -27 30 -16 59 8 21 16 25 49 25 22 0 43 5 46 10 3 6 19 10 35 10 40 0
65 36 50 74 -17 45 11 63 43 29z m1424 -39 c8 -13 22 -24 29 -24 8 0 14 -4 14
-10 0 -12 -45 -24 -65 -16 -8 3 -30 -3 -48 -14 -43 -26 -33 -23 -182 -60 -27
-6 -65 -16 -84 -22 -32 -10 -37 -8 -63 21 -23 26 -27 35 -17 47 16 19 48 18
71 -3 24 -22 79 -18 122 8 17 10 42 19 56 19 30 0 70 26 70 45 0 20 38 44 61
38 11 -3 27 -16 36 -29z m-586 -14 c10 -6 19 -16 19 -22 0 -20 -33 -48 -57
-48 -23 0 -63 -31 -63 -49 0 -5 9 -13 20 -16 11 -3 20 -15 20 -25 0 -22 -31
-33 -79 -28 -30 3 -31 4 -17 30 8 15 12 36 9 47 -4 16 3 24 31 38 29 14 37 23
35 43 0 14 -1 28 0 33 2 11 59 9 82 -3z m-188 -6 c12 -12 -16 -52 -46 -65 -39
-17 -41 -33 -4 -37 31 -4 32 -7 12 -55 -9 -23 -23 -37 -40 -41 -31 -8 -48 1
-41 19 3 8 -2 19 -10 26 -9 7 -12 20 -8 32 4 14 -2 26 -22 42 -41 33 -28 56
25 44 46 -10 91 2 91 26 0 15 31 21 43 9z"/>
<path d="M4885 6959 c-306 -24 -624 -158 -846 -357 l-67 -59 97 -97 98 -97 54
46 c185 159 416 258 666 286 l103 12 0 138 c0 77 -1 138 -2 138 -2 -1 -48 -5
-103 -10z"/>
<path d="M5030 6831 l0 -139 73 -7 c108 -10 272 -49 357 -85 92 -39 121 -45
159 -32 21 7 39 7 63 -2 70 -24 148 -91 148 -126 0 -14 8 -24 21 -27 12 -3 18
-11 15 -19 -13 -34 25 -8 99 66 l79 80 -29 31 c-32 33 -153 127 -221 171 -168
108 -440 200 -629 213 -44 3 -92 8 -107 10 l-28 5 0 -139z"/>
<path d="M4770 6629 c-192 -40 -388 -138 -529 -263 l-49 -44 88 -87 88 -87 55
45 c141 115 320 189 495 204 l72 6 0 123 0 124 -62 -1 c-35 0 -106 -9 -158
-20z"/>
<path d="M5030 6616 c0 -22 6 -36 16 -40 16 -6 16 -8 0 -24 -11 -13 -16 -37
-16 -84 l0 -65 73 -6 c84 -8 165 -27 252 -62 50 -20 68 -23 89 -15 27 10 56 4
56 -11 0 -5 -9 -9 -21 -9 -11 0 -18 -4 -14 -9 6 -10 93 -71 101 -71 10 0 2 17
-21 42 -14 15 -22 33 -19 41 3 9 -4 22 -17 31 -13 8 -20 18 -17 22 11 11 46
-15 68 -51 12 -19 29 -35 39 -35 29 0 63 -44 56 -73 -11 -41 10 -39 49 4 37
39 37 41 21 65 -21 32 -43 40 -66 26 -28 -18 -39 -14 -39 12 0 14 -4 27 -9 30
-5 3 -7 15 -4 26 3 11 -1 27 -8 36 -8 9 -14 22 -15 28 -3 28 -5 34 -23 54 -10
12 -23 22 -30 22 -6 0 -11 8 -11 19 0 44 -294 131 -441 131 -49 0 -49 0 -49
-34z"/>
<path d="M3894 6461 c-144 -162 -262 -381 -319 -591 -23 -87 -55 -287 -55
-346 l0 -24 140 0 140 0 0 38 c0 62 28 215 56 304 46 148 135 306 239 427 l46
54 -93 94 c-51 51 -97 93 -103 92 -5 -1 -29 -22 -51 -48z"/>
<path d="M5977 6422 c-48 -48 -87 -91 -87 -96 0 -5 17 -27 39 -50 21 -22 58
-61 81 -86 51 -54 120 -154 120 -172 0 -8 -4 -18 -10 -24 -6 -6 -1 -31 16 -72
36 -91 63 -203 76 -319 l11 -103 139 0 138 0 -6 63 c-24 283 -106 528 -250
743 -53 79 -159 204 -173 204 -3 0 -46 -39 -94 -88z"/>
<path d="M4872 6359 c-85 -13 -215 -58 -293 -102 -68 -38 -179 -122 -179 -135
0 -4 42 -49 94 -101 l94 -93 53 40 c92 68 185 106 289 118 l60 7 0 138 0 139
-27 -1 c-16 -1 -56 -6 -91 -10z"/>
<path d="M5030 6231 l0 -141 28 0 c89 0 245 -62 335 -133 l39 -30 96 97 97 96
-35 31 c-129 114 -311 192 -502 214 l-58 7 0 -141z"/>
<path d="M4117 6240 c-157 -175 -253 -408 -281 -683 l-6 -58 127 3 128 3 6 70
c16 179 100 373 221 511 l31 35 -84 85 c-46 46 -87 84 -90 84 -4 0 -27 -23
-52 -50z"/>
<path d="M5713 6158 c-26 -27 -24 -55 5 -78 11 -9 32 -37 46 -61 14 -24 30
-43 37 -41 16 4 30 -19 23 -40 -3 -9 3 -25 13 -35 10 -10 24 -38 32 -63 7 -25
16 -52 19 -60 7 -20 9 -28 11 -40 0 -5 8 -10 17 -10 12 0 15 -11 12 -62 -1
-35 -1 -87 0 -115 l2 -53 126 0 127 0 -6 88 c-6 97 -24 179 -63 289 -25 69
-26 71 -50 61 -21 -10 -28 -6 -69 38 -24 27 -45 52 -45 57 0 4 -7 7 -16 7 -9
0 -27 9 -41 20 -14 11 -32 20 -40 20 -8 0 -21 16 -29 36 -12 29 -18 33 -29 24
-11 -10 -19 -7 -37 15 l-23 26 -22 -23z"/>
<path d="M4321 6043 c-107 -125 -201 -363 -201 -508 l0 -35 61 0 c66 0 88 14
89 55 0 11 11 40 23 64 20 38 29 46 77 61 54 17 78 40 43 40 -12 1 -8 6 14 18
18 9 47 40 64 67 17 28 41 60 52 73 l21 23 -94 94 c-52 52 -98 95 -102 95 -3
0 -24 -21 -47 -47z"/>
<path d="M5551 5996 l-93 -93 37 -49 c25 -33 50 -53 77 -62 21 -8 48 -27 60
-43 12 -16 28 -29 36 -29 9 0 11 -7 7 -20 -4 -14 -2 -20 9 -20 8 0 20 9 26 20
12 22 49 27 67 9 8 -8 8 -22 -3 -51 -18 -52 -19 -50 13 -46 17 2 32 13 43 32
20 37 40 45 40 16 0 -33 -53 -80 -89 -80 -29 0 -35 -7 -32 -36 1 -7 -5 -14
-14 -18 -8 -3 -15 -10 -15 -16 0 -6 35 -10 90 -10 l90 0 0 31 c0 25 -3 30 -16
25 -14 -6 -16 -1 -9 31 10 55 8 71 -15 143 -24 73 -46 105 -83 119 -19 7 -24
15 -20 30 3 11 12 22 20 25 11 5 7 16 -18 53 -18 27 -43 58 -56 70 -13 12 -23
27 -23 32 0 6 -8 15 -18 20 -16 8 -34 -5 -111 -83z"/>
<path d="M4913 6049 c-28 -5 -76 -18 -106 -29 -57 -21 -169 -89 -182 -110 -8
-13 151 -180 171 -180 6 0 30 18 54 40 25 24 46 36 50 30 4 -7 21 -7 46 -2
l39 8 3 127 c2 98 0 127 -10 126 -7 -1 -36 -5 -65 -10z"/>
<path d="M5032 5933 l3 -128 32 -3 c22 -2 40 3 55 17 12 12 25 21 30 21 12 0
10 -34 -2 -46 -8 -8 1 -18 27 -35 44 -29 79 -28 63 1 -12 23 -6 42 20 58 16
10 18 9 14 -3 -11 -29 31 -16 66 20 l33 34 -23 9 c-24 9 -24 9 -4 20 15 8 24
8 32 0 7 -7 15 -8 19 -4 10 10 -49 59 -117 95 -57 31 -135 55 -208 65 l-43 6
3 -127z"/>
<path d="M4943 5754 c-3 -9 -2 -19 3 -23 5 -3 10 -18 11 -33 1 -23 -7 -30 -53
-53 -30 -15 -54 -33 -54 -41 0 -8 -4 -14 -10 -14 -5 0 -10 -4 -10 -9 0 -5 9
-7 20 -4 25 7 25 -2 1 -29 -11 -11 -17 -27 -14 -35 4 -9 -2 -16 -16 -20 -16
-4 -20 -11 -15 -25 5 -17 2 -19 -14 -14 -11 4 -23 2 -27 -4 -12 -20 -27 -10
-21 14 4 16 1 26 -9 30 -24 9 -19 -50 6 -75 14 -14 18 -24 10 -28 -15 -10 -6
-46 20 -83 16 -22 24 -27 27 -17 12 39 36 79 47 79 14 0 25 22 25 51 0 10 4
19 9 19 5 0 11 10 13 23 4 28 32 29 36 0 2 -12 13 -23 26 -27 29 -7 39 -39 20
-63 -7 -10 -14 -25 -14 -33 -1 -29 -19 -44 -57 -46 -44 -4 -85 -23 -80 -38 5
-18 109 -64 159 -71 46 -6 47 -6 63 32 37 87 38 88 83 91 36 3 43 7 48 30 3
15 8 35 11 45 2 9 0 17 -6 17 -6 0 -11 11 -11 25 0 43 -21 76 -44 70 -20 -6
-20 -6 -2 9 12 10 19 30 21 56 2 44 -8 58 -30 40 -8 -7 -20 -10 -27 -7 -8 4
-7 6 5 6 42 2 -3 63 -57 77 -38 9 -66 34 -66 57 0 15 3 16 20 7 17 -9 20 -8
20 10 0 16 -6 20 -30 20 -19 0 -33 -6 -37 -16z"/>
<path d="M3520 5445 c0 -56 25 -226 45 -313 57 -238 159 -436 329 -635 l49
-58 98 97 98 97 -46 54 c-25 29 -53 53 -63 53 -10 0 -31 15 -46 33 -15 17 -31
31 -37 29 -21 -6 -44 10 -60 43 -9 19 -23 35 -32 35 -8 0 -15 5 -15 10 0 6 -6
10 -14 10 -8 0 -24 12 -36 27 -17 22 -23 24 -30 13 -7 -11 -14 -9 -36 13 -32
32 -48 26 -39 -14 5 -21 3 -29 -7 -29 -18 0 -44 80 -47 146 -2 61 15 84 62 83
18 0 26 -3 20 -6 -15 -5 -18 -33 -4 -33 5 0 14 7 21 15 19 23 49 28 66 11 8
-9 25 -16 36 -16 16 0 19 5 15 23 -30 134 -37 177 -43 246 l-7 81 -138 0
c-119 0 -139 -2 -139 -15z"/>
<path d="M3836 5398 c6 -66 27 -186 45 -250 8 -31 14 -38 35 -38 35 0 87 38
79 58 -14 38 7 100 51 148 41 44 45 51 42 93 l-3 46 -127 3 -128 3 6 -63z"/>
<path d="M4270 5436 c0 -17 -9 -28 -30 -37 -27 -13 -29 -16 -23 -54 3 -22 19
-59 34 -82 17 -24 29 -55 29 -73 0 -17 7 -38 15 -46 10 -10 12 -28 8 -62 -4
-38 0 -57 20 -97 18 -35 23 -53 15 -62 -7 -9 -4 -20 9 -37 l20 -25 97 98 97
98 -24 29 c-46 55 -81 119 -108 197 -20 57 -30 74 -36 63 -6 -10 -13 -12 -23
-6 -10 7 -11 10 -2 10 8 0 10 8 7 23 -4 15 -1 28 8 36 8 6 13 21 10 31 -5 17
-14 20 -64 20 -56 0 -59 -1 -59 -24z"/>
<path d="M5697 5438 c11 -13 26 -39 32 -58 8 -24 22 -40 44 -50 49 -23 46 -43
-12 -64 -28 -10 -59 -15 -69 -12 -12 4 -22 1 -25 -8 -3 -8 -18 -16 -34 -18
-20 -2 -33 -12 -45 -37 -17 -34 -83 -101 -100 -101 -4 0 -8 -7 -8 -16 0 -11 5
-14 18 -9 9 4 25 10 35 12 9 3 17 13 17 23 0 19 25 34 41 24 14 -8 10 -108 -6
-147 -16 -39 -4 -62 15 -27 17 31 25 24 40 -31 l14 -52 39 44 c90 101 166 265
192 414 25 147 34 135 -97 135 l-111 0 20 -22z"/>
<path d="M5930 5415 c0 -159 -95 -397 -210 -528 l-43 -48 44 -45 c38 -39 44
-42 53 -27 26 50 51 32 61 -42 3 -30 10 -57 14 -59 11 -7 126 138 173 217 87
149 144 328 155 485 l6 92 -126 0 -127 0 0 -45z"/>
<path d="M6211 5350 c-26 -244 -123 -468 -284 -660 l-46 -55 97 -97 96 -98 46
52 c73 83 154 200 203 295 106 207 146 349 172 616 l5 57 -138 0 -139 0 -12
-110z"/>
<path d="M4445 5350 c18 -84 84 -212 130 -250 14 -12 26 -4 101 71 46 46 84
86 84 89 0 3 -11 19 -24 35 -23 28 -25 29 -31 10 -14 -41 -36 -84 -45 -90 -10
-6 -15 20 -12 58 1 9 -5 17 -14 17 -8 0 -12 -4 -9 -10 3 -5 0 -10 -8 -10 -7 0
-20 11 -27 25 -8 14 -19 24 -25 21 -6 -2 -17 5 -23 15 -7 11 -23 19 -39 19
-14 0 -35 8 -46 18 -19 17 -19 16 -12 -18z"/>
<path d="M4700 5145 c-82 -83 -84 -85 -65 -105 30 -33 112 -81 181 -106 77
-28 174 -33 174 -9 0 9 -9 15 -25 15 -29 0 -40 19 -31 53 4 17 12 23 28 23 20
-1 23 4 24 36 1 23 -3 35 -9 31 -7 -4 -8 1 -3 13 16 42 10 51 -43 64 -28 6
-70 25 -96 41 -25 16 -47 29 -48 29 -1 0 -40 -38 -87 -85z"/>
<path d="M5263 5114 c-3 -8 -12 -14 -20 -14 -11 0 -13 -7 -9 -24 4 -16 0 -30
-9 -40 -20 -19 -19 -25 7 -47 11 -11 16 -19 9 -19 -20 0 -68 28 -74 43 -6 16
-47 30 -47 16 0 -4 9 -13 20 -19 11 -6 18 -16 14 -22 -4 -5 -9 -6 -13 -1 -3 4
-18 14 -32 20 -37 16 -73 -3 -77 -41 -4 -28 -3 -29 37 -22 32 5 41 3 41 -8 0
-24 26 -25 93 -1 78 27 137 61 137 80 0 22 -27 25 -46 4 -22 -24 -40 -24 -47
0 -6 23 16 44 58 58 40 13 38 36 -3 44 -24 5 -35 3 -39 -7z"/>
<path d="M4490 4935 l-94 -94 20 -22 c35 -39 141 -109 226 -148 97 -46 176
-68 276 -77 62 -6 72 -5 72 9 0 12 -15 18 -60 23 -33 4 -60 11 -60 15 0 5 -7
9 -15 9 -8 0 -24 19 -36 43 -12 23 -28 46 -36 50 -11 7 -10 13 7 34 11 14 20
31 20 37 0 6 14 23 32 37 l31 26 -66 22 c-57 19 -124 58 -202 116 -20 14 -26
10 -115 -80z"/>
<path d="M5632 4794 c-34 -23 -27 -52 23 -96 25 -22 45 -43 45 -47 0 -3 -16
-23 -36 -44 -30 -30 -33 -38 -20 -43 18 -7 22 -39 6 -49 -5 -3 -10 -11 -10
-17 0 -5 13 -2 29 9 43 27 151 117 151 126 0 4 -11 7 -25 7 -18 0 -25 5 -25
20 0 11 -5 20 -11 20 -5 0 -7 5 -4 10 4 6 1 17 -5 26 -10 11 -16 12 -28 2 -13
-11 -14 -10 -8 8 4 15 -3 28 -27 52 -31 30 -34 31 -55 16z"/>
<path d="M4448 4728 c7 -7 12 -22 12 -35 0 -21 -5 -23 -49 -23 -31 0 -53 -5
-61 -15 -17 -21 -106 -20 -118 0 -7 14 -10 13 -25 -3 -17 -19 -15 -21 50 -74
208 -168 396 -245 671 -273 l62 -7 0 126 0 125 -32 5 c-18 3 -55 8 -83 11
-121 15 -277 74 -379 144 -45 31 -70 41 -48 19z"/>
<path d="M4065 4510 l-96 -97 58 -50 c252 -218 542 -339 881 -369 l82 -7 0
140 0 140 -90 7 c-230 17 -465 113 -659 270 l-79 64 -97 -98z"/>
<path d="M5810 4569 c-25 -22 -79 -63 -120 -91 -41 -29 -102 -75 -135 -103
-93 -80 -147 -103 -176 -74 -15 15 -22 15 -100 -2 -46 -10 -121 -22 -166 -25
l-83 -7 0 -140 0 -140 78 7 c271 24 510 105 722 247 90 61 203 155 208 173 1
6 -39 52 -90 103 l-93 92 -45 -40z"/>
<path d="M5053 4554 c-22 -5 -23 -9 -23 -130 0 -112 2 -124 18 -124 34 1 168
20 214 31 44 10 47 13 37 31 -6 11 -19 23 -30 25 -29 8 -49 47 -43 84 8 55
-20 80 -92 84 -32 2 -69 1 -81 -1z"/>
<path d="M2957 3423 c-4 -3 -7 -89 -7 -190 l0 -183 81 0 c66 0 86 4 110 21
l29 20 0 145 0 145 -27 24 c-24 21 -38 24 -104 25 -42 0 -79 -3 -82 -7z"/>
<path d="M6280 3350 l0 -80 69 0 c65 0 71 2 95 31 33 39 33 69 -2 102 -25 24
-36 27 -95 27 l-67 0 0 -80z"/>
<path d="M6926 3382 c-3 -5 -21 -52 -40 -105 l-35 -97 79 0 c44 0 80 2 80 4 0
6 -71 200 -75 204 -1 2 -6 -1 -9 -6z"/>
</g>
</svg>
